<?xml version="1.0" encoding="UTF-8"?>
<svg id="Layer_2" data-name="Layer 2" xmlns="http://www.w3.org/2000/svg" viewBox="0 0 830.55 185.82">
  <defs>
    <style>
      .cls-1 {
        fill: #02b7c2;
      }

      .cls-1, .cls-2, .cls-3 {
        stroke-width: 0px;
      }

      .cls-2 {
        fill: #f0c685;
      }

      .cls-3 {
        fill: #013d41;
      }
    </style>
  </defs>
  <g id="Layer_1-2" data-name="Layer 1">
    <g>
      <g>
        <path class="cls-3" d="M680.15,25.38c7.14,0,12.94-5.65,12.94-12.62s-5.79-12.62-12.94-12.62-12.94,5.65-12.94,12.62,5.79,12.62,12.94,12.62Z"/>
        <path class="cls-3" d="M334.87,108.1h-21.99c-1.28,0-2.31-1.01-2.31-2.26v-.23c0-13.74,0-27.43-.06-41.18-.06-5.87-3.16-10.13-8.2-11.5-7.47-2.01-13.91,2.08-14.94,9.54-.24,1.78-.36,3.56-.36,5.33-.06,12.51,0,25,0,37.51v.42c0,1.25-1.03,2.26-2.31,2.26h-21.63c-1.28,0-2.31-1.01-2.31-2.26V33.38c0-1.25,1.03-2.26,2.31-2.26h18.89c1.28,0,2.31,1.01,2.31,2.26,0,1.89,2.18,2.91,3.77,1.78,5.77-4.39,12.39-5.93,19.62-5.87,8.14,0,15.24,2.19,20.71,8.17.92,1.01,2.49.95,3.41,0,4.31-4.32,9.65-6.63,15.8-7.53,11.18-1.66,21.68-.6,30.38,7.41,5.46,5.03,8.57,11.43,9.05,18.61.61,8.71.49,17.48.54,26.18.06,7.82,0,15.7,0,23.64,0,1.25-1.03,2.26-2.31,2.26h-21.99c-1.28,0-2.31-1.01-2.31-2.26v-.18c0-13.81.18-27.61-.12-41.35-.36-9.95-8.26-13.21-16.04-11.02-4.74,1.36-7.54,5.98-7.59,12.26-.06,13.39,0,26.72,0,40.11v.3c0,1.18-1.03,2.19-2.31,2.19h0Z"/>
        <path class="cls-3" d="M473.25,42.14c-8.99-9.84-20.71-13.69-33.96-13.69-1.51,0-3.03-.06-4.62,0-1.1.06-2.19.23-3.23.42-11.85,1.89-21.86,6.88-28.73,16.71-6.75,9.65-8.57,20.5-6.5,31.93,2.01,10.96,7.59,19.85,17.25,26.07,9.29,5.98,19.62,7.88,30.61,6.99,8.93-.77,17.13-3.62,24.24-9.12,9.24-7.17,13.91-16.83,14.94-28.08.98-11.68-1.95-22.33-10.02-31.22h0ZM439.41,88.13c-10.75,0-18.11-7.58-18.11-18.66s7.29-18.43,18.11-18.43,18.16,7.53,18.16,18.43-7.41,18.61-18.16,18.66Z"/>
        <path class="cls-3" d="M569.11,108.1h-22.96c-.97,0-1.7-.77-1.7-1.66v-.83c0-12.74.06-25.48-.06-38.16,0-2.19-.24-4.44-.79-6.51-1.64-6.1-6.68-9.07-14.16-8.59-5.83.35-10.32,4.39-11.11,10.19-.24,1.78-.36,3.56-.36,5.33-.06,12.5,0,25,0,37.5v1.01c0,.95-.79,1.66-1.7,1.66h-22.84c-.98,0-1.7-.77-1.7-1.66V32.85c0-.95.79-1.66,1.7-1.66h21.5c.97,0,1.7.77,1.7,1.66v1.06c0,1.43,1.76,2.19,2.85,1.25.67-.6,1.39-1.13,2.13-1.6,18.11-11.85,44.04-1.43,48.29,19.44.61,3.08.97,6.34.97,9.48.12,14.64.06,29.27.06,43.91-.06,1.01-.85,1.71-1.82,1.71h0Z"/>
        <path class="cls-3" d="M603.72,108.1h-22.96c-.92,0-1.64-.71-1.64-1.6V32.72c0-.88.73-1.6,1.64-1.6h21.63c.92,0,1.64.71,1.64,1.6v1.3c0,1.36,1.7,2.13,2.74,1.25.73-.6,1.46-1.18,2.19-1.66,18.11-11.85,44.04-1.43,48.29,19.44.61,3.08.97,6.34.97,9.48.12,14.64.06,29.27.06,43.91,0,.89-.79,1.6-1.64,1.6h-23.09c-.92,0-1.64-.71-1.64-1.6v-.77c0-12.74.06-25.48-.06-38.16,0-2.19-.24-4.44-.79-6.51-1.64-6.1-6.68-9.07-14.16-8.59-5.83.35-10.32,4.39-11.11,10.19-.24,1.78-.36,3.56-.36,5.33-.06,12.5,0,25,0,37.5v1.13c-.06.77-.79,1.54-1.7,1.54h-.01Z"/>
        <path class="cls-3" d="M830.55,31.01c-.3.83-.48,1.48-.72,2.08-14.03,34.07-28.12,68.08-42.16,102.21h-26.84c3.21-8.24,6.44-16.41,9.72-24.59.61-1.43.54-2.61-.06-3.97-8.08-17.96-16.16-35.9-24.24-53.86h-4.74c-1.03,0-1.88.83-1.88,1.84v51.43c0,1.01-.85,1.84-1.88,1.84h-22.84c-1.03,0-1.88-.83-1.88-1.84v-51.37c0-1.01-.85-1.84-1.88-1.84h-8.26c-1.03,0-1.88-.83-1.88-1.84v-18.24c0-1.01.85-1.84,1.88-1.84h10.03c0,.18,0,.23.06,0v-.18c0-.23.06-.53.06-1.01.24-3.56.54-7.29,1.64-10.67,3.23-9.9,10.88-15.05,20.83-17.36,5.77-1.36,16.47-1.48,22.3-.48.43.06,1.51.18,2.55.3.98.12,1.7.88,1.7,1.84v16.95c0,1.01-.85,1.84-1.88,1.84h-11.67c-5.59,0-8.62,2.84-8.81,8.12v-.18c0-2.19,0-.3,0,.88,0,.71,0,1.13,0,0,7.96,0,15.73,0,23.51.06h1.03c.54,0,1.33.88,1.58,1.54,5.83,13.69,11.6,27.38,17.44,41.06.3.77.67,1.54,1.15,2.67,2.49-6.16,4.86-11.96,7.17-17.83,3.41-8.54,6.87-17.01,10.14-25.54.61-1.54,1.33-1.96,3.03-1.96,8.44,0,16.95-.06,25.81-.06h0Z"/>
        <path class="cls-3" d="M712.95,30.78v.18h-.06c-.06-.65.06-2.72.06-.18Z"/>
        <path class="cls-3" d="M763.12,31.07c-7.77-.06-15.55-.06-23.5-.06,0,.71,0,1.13,0,0s0-3.02,0-.88v.18c0,.18.06.35.12.65h22.78c.18,0,.43.06.61.12Z"/>
        <path class="cls-3" d="M692.72,33.14v72.88c0,1.13-.92,2.01-2.06,2.01h-21.99c-1.15,0-2.06-.89-2.06-2.01V33.14c0-1.13.92-2.01,2.06-2.01h21.99c1.15,0,2.06.88,2.06,2.01Z"/>
      </g>
      <g>
        <path class="cls-1" d="M182.82,28.6c.79,14.56-8.95,27.04-22.48,30.77-.18.12-.31.18-.43.23-13.22,3.45-22.97,15.21-22.97,29.23,0,.12-.12.3-.24.48-1.88,14.91-14.99,26.44-30.76,26.44h-.61c-15.77,0-28.88-11.53-30.76-26.44-.18-.23-.24-.35-.24-.48,0-13.97-9.75-25.79-22.97-29.23-.12-.06-.24-.12-.43-.23-13.52-3.75-23.27-16.22-22.48-30.77C29.24,13.51,41.67,1.15,57.14.08c18.15-1.25,33.26,12.77,33.26,30.19v.6c.85,6.47,3.78,12.48,8.28,17.12,3.78,3.86,10.05,3.86,13.83,0,4.51-4.63,7.49-10.63,8.28-17.12v-.6c0-17.41,15.1-31.43,33.26-30.19,15.41,1.06,27.9,13.43,28.75,28.52h.01Z"/>
        <path class="cls-2" d="M179.46,134.72c17.13,0,31.01-13.54,31.01-30.24s-13.88-30.24-31.01-30.24-31.01,13.54-31.01,30.24,13.88,30.24,31.01,30.24Z"/>
        <path class="cls-2" d="M31.01,135.01c17.13,0,31.01-13.54,31.01-30.24s-13.88-30.24-31.01-30.24S0,88.07,0,104.77s13.88,30.24,31.01,30.24Z"/>
      </g>
      <g>
        <g>
          <path class="cls-3" d="M490.82,151.83c-.39-1.22-.96-2.28-1.71-3.19-.75-.91-1.66-1.62-2.76-2.13-1.1-.49-2.36-.75-3.88-.75s-2.81.26-3.86.78c-1.05.53-1.93,1.2-2.63,2.01v-9.36c0-.29-.09-.53-.27-.72-.19-.19-.43-.29-.74-.29h-3.58c-.29,0-.53.1-.72.29-.2.2-.29.44-.29.72v27.91c0,.29.09.53.29.72s.44.29.72.29h3.33c.31,0,.56-.09.74-.29.19-.2.28-.43.28-.72v-1.56c.71.87,1.6,1.59,2.68,2.15,1.08.57,2.44.85,4.07.85h0c1.49,0,2.78-.26,3.88-.75,1.08-.5,2-1.19,2.73-2.09.72-.91,1.28-1.97,1.68-3.19.39-1.21.61-2.56.67-4.02.04-.5.05-.97.05-1.37s-.02-.86-.05-1.37c-.02-1.41-.23-2.71-.63-3.92ZM485.78,158.43c-.06,1.01-.24,1.93-.55,2.78-.31.83-.8,1.52-1.47,2.04s-1.62.78-2.83.78v-.02c-1.15,0-2.1-.27-2.81-.8-.71-.53-1.24-1.21-1.56-2.04-.31-.83-.5-1.68-.56-2.55-.05-.51-.05-1.05-.05-1.62s.02-1.11.05-1.62c.03-.84.23-1.65.59-2.42.37-.77.9-1.4,1.6-1.91.71-.5,1.62-.75,2.74-.75,1.21,0,2.16.26,2.83.78.67.52,1.15,1.2,1.47,2.04.31.84.49,1.77.55,2.78.03.85.03,1.68,0,2.53Z"/>
          <path class="cls-3" d="M515,146.2h-3.37c-.34,0-.59.07-.76.23-.17.16-.3.35-.38.57l-5.78,13.79-5.6-13.79c-.09-.19-.21-.37-.38-.54-.17-.18-.43-.26-.76-.26h-3.41c-.25,0-.47.1-.63.28-.16.18-.26.39-.29.65,0,.11.05.31.17.59l8.09,19.1-3.29,7.8c-.09.14-.14.26-.15.36-.02.09-.03.2-.03.31,0,.22.09.42.26.59s.37.25.59.25h.01s3.33,0,3.33,0c.33,0,.59-.07.75-.23.17-.16.31-.35.42-.57l11.93-27.62c.11-.27.17-.5.17-.67,0-.22-.09-.42-.28-.59-.18-.18-.39-.26-.61-.26Z"/>
        </g>
        <path class="cls-3" d="M661.99,150.51c-.88-3.94-3.18-6.63-7.05-7.89-2.12-.69-4.31-.78-6.51-.45-2.01.3-3.79,1.09-5.3,2.46-.71.64-1.33,1.38-1.9,2.16-.06-.03-.08-.03-.09-.04-.04-.07-.09-.14-.13-.21-.97-1.71-2.39-2.94-4.21-3.66-2.68-1.06-5.43-1.2-8.19-.35-2.21.68-4.14,1.8-5.47,3.77,0,0-.03,0-.1-.01v-.46c0-.86,0-1.72,0-2.57,0-.24-.07-.34-.31-.31-.08,0-.17,0-.25,0-2.66,0-5.32,0-7.98,0-.65,0-.56-.04-.56.55,0,9.96,0,19.93,0,29.89,0,.12,0,.23,0,.35-.01.17.07.24.24.23.12,0,.23,0,.35,0,2.77,0,5.55,0,8.32,0q.61,0,.61-.59c0-5.69,0-11.38,0-17.07,0-.58.05-1.16.2-1.71.49-1.82,1.58-3.09,3.42-3.64.8-.24,1.63-.26,2.45-.14,1.82.26,3.1,1.22,3.73,2.98.28.79.35,1.61.35,2.43,0,5.71,0,11.41,0,17.12,0,.13,0,.26,0,.4,0,.17.07.23.24.22.1,0,.2,0,.3,0,2.77,0,5.55,0,8.32,0,.59,0,.52.08.52-.53,0-5.71,0-11.41,0-17.12,0-.41.02-.83.09-1.23.35-1.93,1.35-3.34,3.24-4.03.93-.34,1.91-.39,2.88-.23,1.78.29,3,1.27,3.6,3,.28.81.34,1.64.34,2.49,0,5.67,0,11.35,0,17.02,0,.12.01.23,0,.35-.03.25.09.32.32.29.05,0,.1,0,.15,0,2.76,0,5.52,0,8.27,0,.07,0,.13,0,.2,0,.21.03.26-.08.25-.26,0-.08,0-.16,0-.25,0-6.52,0-13.03,0-19.55,0-1.14-.08-2.27-.33-3.39Z"/>
        <path class="cls-3" d="M547.22,142.94c-1.65,0-3.3,0-4.95,0q-.67,0-.67-.69c0-2.66,0-5.31,0-7.97,0-.4,0-.4-.4-.4-2.58,0-5.15,0-7.73,0-.37,0-.38,0-.38.38,0,1.17,0,2.34,0,3.51,0,.43-.03.85-.09,1.28-.35,2.22-1.84,3.63-4.07,3.85-.61.06-1.22.03-1.83.04-.38,0-.38,0-.38.37,0,2.51,0,5.01,0,7.52,0,.39,0,.4.41.4,1.52,0,3.04,0,4.56,0,.59,0,.52-.04.52.54,0,4.16,0,8.31,0,12.47,0,.81.04,1.62.18,2.41.67,3.83,2.85,6.32,6.6,7.4,1.82.52,3.68.57,5.55.36.89-.1,1.76-.27,2.6-.59.41-.16.41-.16.41-.6,0-2.33,0-4.65,0-6.98v-.45c-.23.04-.39.07-.55.1-.95.16-1.89.25-2.86.14-1.3-.15-2.13-.82-2.41-1.99-.1-.42-.13-.85-.13-1.28,0-3.68,0-7.36,0-11.03,0-.1,0-.2,0-.3,0-.15.07-.21.21-.21.12,0,.23,0,.35,0,1.7,0,3.4,0,5.1,0,.4,0,.4,0,.4-.4,0-2.49,0-4.98,0-7.47,0-.41,0-.42-.44-.42Z"/>
        <path class="cls-3" d="M737.75,149.24c1.47,0,2.94,0,4.41,0,.53,0,1.05-.02,1.58-.02h.05s.05,0,.05,0v-5.25s-.07,0-.1,0c-.18,0-.36-.02-.54-.02-1.7,0-3.4,0-5.1,0-.24,0-.55.11-.72-.05-.19-.18-.07-.5-.07-.76,0-2.75,0-5.51,0-8.26,0-.41,0-.42-.39-.42-1.55,0-3.1,0-4.65,0-.26,0-.33.08-.33.33.01,1.34,0,2.67,0,4.01,0,.48,0,.95-.07,1.43-.26,2.09-1.63,3.43-3.72,3.67-.68.08-1.35.05-2.03.06-.46,0-.44-.04-.44.41,0,1.5,0,3,0,4.5,0,.38-.02.38.38.38,1.6,0,3.2,0,4.8,0,.64,0,.57-.06.57.59,0,5.21,0,10.42,0,15.63,0,.88.03,1.75.22,2.61.68,3.1,2.49,5.14,5.62,5.91,2.17.53,4.32.35,6.46-.23.04,0,.08.01.12.02v-5.05c-.14,0-.29-.05-.4.08-.55.11-1.11.15-1.67.17-.76.03-1.52-.03-2.25-.26-.98-.32-1.63-.96-1.95-1.95-.18-.57-.26-1.16-.26-1.75,0-5.11,0-10.23,0-15.34,0-.41,0-.42.45-.42Z"/>
        <path class="cls-3" d="M572.13,143.43c-3.16-1.38-6.5-1.81-9.88-1.2-5.64,1.03-9.6,4.27-11.74,9.59-1.63,4.05-1.63,8.21-.31,12.35,1.04,3.26,2.99,5.89,5.81,7.84,2.53,1.75,5.35,2.66,8.42,2.84,2.35.14,4.65-.1,6.87-.9,4.15-1.5,7-4.29,8.41-8.51.15-.44.09-.43-.28-.53-2.38-.66-4.76-1.35-7.13-2.02-.39-.11-.39-.11-.56.28-.71,1.66-1.89,2.81-3.63,3.32-1.86.54-3.73.5-5.52-.27-2.14-.92-3.55-2.46-3.96-4.82q-.1-.56.49-.56c3.42,0,6.84,0,10.25,0h10.15c.1,0,.2,0,.3,0,.42,0,.4,0,.46-.44.08-.66.1-1.32.11-1.97.06-2.42-.21-4.81-1.02-7.1-1.29-3.65-3.65-6.35-7.22-7.91ZM570.8,154.74c-3.91,0-7.83,0-11.74,0-.1,0-.2.02-.31-.07,0-.5.16-.99.35-1.46.69-1.67,1.89-2.82,3.6-3.37,1.82-.59,3.66-.5,5.41.29,1.8.81,2.77,2.27,3.02,4.22.05.38.03.39-.34.39Z"/>
        <path class="cls-3" d="M607.19,145.76c-1.57-1.65-3.53-2.63-5.72-3.17-2.49-.62-5.02-.74-7.57-.43-2.14.27-4.16.89-5.97,2.07-2.81,1.82-4.62,4.33-5.14,7.68-.06.38-.06.38.31.46,2.52.51,5.04,1.03,7.56,1.54.33.07.33.07.39-.28.19-1.18.73-2.18,1.64-2.96.84-.72,1.83-1.09,2.93-1.2,1.21-.12,2.38,0,3.47.55.77.38,1.36.95,1.63,1.78.48,1.52,0,2.68-1.68,3.05-.05.01-.1.02-.15.02-2.09.32-4.17.65-6.26.97-1.19.18-2.38.34-3.54.7-1.74.55-3.33,1.37-4.59,2.71-2.24,2.39-2.83,5.24-2.09,8.36.71,3,2.65,5.04,5.44,6.25,2.42,1.04,4.95,1.23,7.52.74,2.53-.48,4.62-1.71,6.1-3.87.03-.05.07-.12.15-.07,0,.86,0,1.71,0,2.57,0,.15,0,.3,0,.45,0,.2.05.32.28.29.07,0,.13,0,.2,0,2.53,0,5.05,0,7.58,0,.14,0,.3.04.46-.06,0-.86,0-1.73,0-2.6,0-5.71,0-11.42.01-17.12,0-1.04-.08-2.08-.29-3.1-.41-2.01-1.25-3.81-2.68-5.32ZM600.58,164.2c-.6,2.12-2.11,3.42-4.44,3.7-.74.09-1.48.09-2.21-.08-1.35-.33-2.26-1.29-2.4-2.56-.17-1.6.41-2.74,1.73-3.39.57-.28,1.17-.42,1.79-.52,1.92-.3,3.84-.61,5.81-.93,0,1.32.06,2.56-.29,3.79Z"/>
        <path class="cls-3" d="M723.43,151.62c-1.07-2.67-2.71-4.91-5.2-6.42-3.43-2.07-7.13-2.45-10.97-1.46-2.65.69-4.78,2.18-6.24,4.54-.03.05-.07.1-.11.14-.03-.01-.05-.02-.08-.03,0-1.35,0-2.7,0-4.06,0-.4,0-.4-.4-.4-1.55,0-3.1,0-4.66,0-.73,0-.63-.11-.63.62,0,13.54,0,27.08,0,40.62,0,.07,0,.13,0,.2,0,.43,0,.44.43.44,1.63,0,3.27,0,4.9,0,.5,0,.48.07.48-.48,0-.08,0-.16,0-.25v-15.01c.13-.01.16.05.19.1,1.23,1.81,2.93,3.01,4.96,3.77,2.08.78,4.23.95,6.43.7,2.41-.27,4.61-1.1,6.54-2.59,2.18-1.68,3.63-3.89,4.56-6.45.94-2.6,1.22-5.29,1.07-8.03-.11-2.05-.5-4.05-1.27-5.97ZM717.27,165.12c-1.55,2.76-3.9,4.26-7.09,4.39-3.76.15-6.68-1.89-8.16-5.1-1.03-2.23-1.27-4.59-1.05-7.01.15-1.64.61-3.2,1.44-4.64,1.34-2.29,3.27-3.78,5.92-4.22,3.71-.61,7.37.89,9.24,4.81.84,1.76,1.15,3.63,1.16,5.61-.02,2.13-.38,4.22-1.46,6.14Z"/>
        <path class="cls-3" d="M691.73,152.13c-.56-3.86-2.57-6.6-6.22-8.08-1.59-.65-3.26-.91-4.97-1.02-1.81-.11-3.6.03-5.34.54-2.77.82-5.05,2.33-6.65,4.77-.8,1.22-1.28,2.56-1.5,3.99-.05.31-.1.39.29.48,1.66.37,3.31.77,4.96,1.15.32.07.32.06.37-.24.03-.21.06-.42.11-.63.51-2.16,1.68-3.79,3.8-4.59,2.01-.75,4.05-.7,6.06.02,2.19.79,3.4,2.66,3.31,4.98-.04.88-.46,1.49-1.27,1.83-.23.09-.47.16-.71.21-.54.1-1.07.17-1.61.25-1.93.28-3.85.56-5.78.84-1.18.17-2.35.33-3.49.7-1.71.54-3.27,1.34-4.49,2.68-2.16,2.37-2.7,5.17-1.89,8.2.76,2.83,2.67,4.72,5.34,5.85,2.02.85,4.12.99,6.27.7,3.17-.43,5.73-1.88,7.6-4.5.05-.07.08-.18.19-.17,0,.76,0,1.51,0,2.27,0,.43-.02.86,0,1.29.02.25.1.33.36.33,1.3-.01,2.61,0,3.91,0h1.41c0-.5,0-.95,0-1.39.08-6.17.02-12.34.04-18.51,0-.64-.02-1.28-.11-1.92ZM685.53,164.53c-.83,2.83-2.73,4.51-5.58,5.15-1.16.26-2.35.39-3.54.21-1.84-.29-3.19-1.23-3.81-3.03-.57-1.63-.17-4.08,2.26-5.21.84-.39,1.73-.53,2.62-.67,2.32-.34,4.63-.69,6.95-1.03.49-.07.98-.15,1.52-.23.05,1.65.03,3.25-.42,4.8Z"/>
      </g>
    </g>
  </g>
</svg>